<?xml version="1.0" encoding="UTF-8" standalone="no"?>
<!-- Created with Inkscape (http://www.inkscape.org/) -->

<svg
   width="431.35858"
   height="431.02872"
   viewBox="0 0 431.35858 431.02872"
   version="1.1"
   id="svg1"
   xml:space="preserve"
   inkscape:version="1.4 (e7c3feb100, 2024-10-09)"
   sodipodi:docname="flax_logo.svg"
   xmlns:inkscape="http://www.inkscape.org/namespaces/inkscape"
   xmlns:sodipodi="http://sodipodi.sourceforge.net/DTD/sodipodi-0.dtd"
   xmlns="http://www.w3.org/2000/svg"
   xmlns:svg="http://www.w3.org/2000/svg"><sodipodi:namedview
     id="namedview1"
     pagecolor="#ffffff"
     bordercolor="#000000"
     borderopacity="0.25"
     inkscape:showpageshadow="2"
     inkscape:pageopacity="0.0"
     inkscape:pagecheckerboard="true"
     inkscape:deskcolor="#d1d1d1"
     inkscape:document-units="px"
     inkscape:zoom="0.49460646"
     inkscape:cx="287.09694"
     inkscape:cy="335.62036"
     inkscape:window-width="1920"
     inkscape:window-height="1024"
     inkscape:window-x="0"
     inkscape:window-y="0"
     inkscape:window-maximized="1"
     inkscape:current-layer="layer1" /><defs
     id="defs1" /><g
     inkscape:label="Logo"
     inkscape:groupmode="layer"
     id="layer1"
     transform="translate(-652.098,-179.00461)"><path
       style="fill:#263c93;fill-opacity:1;stroke-width:0.323579"
       d="M 856.09851,609.65231 C 678.65523,599.16071 588.89989,392.01414 702.71821,255.66556 c 107.78412,-129.11994 317.33159,-88.43624 369.97259,71.83026 47.0393,143.2122 -66.4341,291.03481 -216.59229,282.15649 z m 22.63215,-22.33605 c 0.69512,-0.96536 34.71481,-41.47829 80.32638,-95.658 4.79441,-5.69499 18.19687,-21.62182 29.78322,-35.39296 11.58634,-13.77114 31.16184,-37.03001 43.50094,-51.68637 22.0786,-26.22478 23.7056,-28.29207 21.7862,-27.68291 -0.519,0.16472 -2.6239,0.75035 -4.6776,1.3014 -5.5832,1.4981 -20.4983,5.50513 -30.376,8.16069 -41.12598,11.05651 -78.33034,21.03616 -81.00198,21.72786 -1.77964,0.46078 -7.2158,1.91762 -12.08024,3.23743 -8.97447,2.43492 -75.24846,20.28185 -81.97337,22.07461 -2.01697,0.5377 -8.13262,2.18365 -13.59033,3.65767 -5.45768,1.47403 -17.08074,4.59711 -25.82902,6.94017 -8.74825,2.34306 -15.99564,4.34984 -16.1053,4.4595 -0.25104,0.25105 88.70017,140.06579 89.09921,140.04738 0.16137,-0.007 0.67343,-0.54139 1.13789,-1.18647 z M 802.41895,423.18853 c 9.23536,-10.96308 21.45591,-25.4756 27.15678,-32.25005 5.70089,-6.77444 17.14685,-20.37428 25.43549,-30.22188 8.28861,-9.84758 19.14973,-22.75839 24.13582,-28.69067 16.06956,-19.11907 61.05055,-72.58824 70.37122,-83.6507 14.14198,-16.78475 14.34906,-17.06056 12.39059,-16.50138 -1.06498,0.30407 -6.63254,1.8036 -10.46243,2.81791 -1.77964,0.47132 -7.90316,2.11699 -13.6078,3.65703 -5.70463,1.54005 -11.82025,3.18299 -13.5903,3.65101 -1.77007,0.46801 -19.62377,5.2429 -39.67485,10.61086 -20.05113,5.36797 -37.13611,9.93458 -37.96663,10.14803 -0.8305,0.21345 -3.16027,0.87609 -5.17727,1.47254 -2.01697,0.59644 -6.28821,1.76431 -9.49164,2.59526 -3.20343,0.83095 -9.80445,2.59187 -14.66891,3.91316 -4.86449,1.32127 -10.98014,2.97414 -13.59032,3.67302 -2.61021,0.69888 -7.94927,2.13864 -11.86458,3.19948 -3.9153,1.06083 -8.96313,2.41635 -11.21741,3.01228 -2.25425,0.59592 -11.37918,3.04597 -20.27761,5.44456 -8.89841,2.39859 -18.79994,5.05705 -22.00337,5.90768 -3.20343,0.85063 -7.7659,2.08528 -10.13882,2.74367 -2.3729,0.65839 -7.03244,1.91945 -10.35453,2.80234 -12.96967,3.44692 -21.4853,5.79786 -21.66996,5.98251 -0.16526,0.16527 1.65096,3.13667 7.1671,11.72565 0.62055,0.96622 19.18397,30.13562 41.25206,64.82087 22.06809,34.68527 40.33351,63.06538 40.58983,63.06691 0.2563,0.002 8.0222,-8.96701 17.25754,-19.93009 z"
       id="path1"
       inkscape:label="path1" /></g></svg>
